<svg width="77" height="77" viewBox="0 0 77 77" fill="none" xmlns="http://www.w3.org/2000/svg">
<path d="M76.7464 18.1055V59.7644C76.7464 69.2389 69.0668 76.9156 59.5952 76.9156H17.9363C8.46188 76.9156 0.785156 69.236 0.785156 59.7644V18.1055C0.785156 8.63107 8.46474 0.954346 17.9363 0.954346H59.5952C69.0668 0.954346 76.7464 8.63393 76.7464 18.1055Z" fill="url(#paint0_linear_88611_14910)"/>
<path d="M26.977 58.25L26.9713 58.2357L26.4082 58.4015L26.3968 58.4072L25.8566 58.5673L25.9109 58.7159C26.0767 58.6844 26.2396 58.653 26.3968 58.613L26.4111 58.6101L26.9741 58.4529L26.977 58.4672C27.0027 58.4615 27.0256 58.4529 27.0513 58.4472L26.977 58.25ZM17.5797 58.7445L17.5369 58.5873L16.9681 58.7187L16.3965 58.8559L16.4222 58.9531C16.4251 58.9531 16.4251 58.9531 16.4251 58.9531C16.608 58.9588 16.7852 58.9617 16.9652 58.9702L17.5369 58.8473L17.5769 58.9902C17.6026 58.9902 17.6312 58.9902 17.654 58.9931L17.5797 58.7445Z" fill="white"/>
<path d="M26.977 58.25L26.9713 58.2357L26.4082 58.4015L26.3968 58.4072L25.8566 58.5673L25.9109 58.7159C26.0767 58.6844 26.2396 58.653 26.3968 58.613L26.4111 58.6101L26.9741 58.4529L26.977 58.4672C27.0027 58.4615 27.0256 58.4529 27.0513 58.4472L26.977 58.25ZM17.5797 58.7445L17.5369 58.5873L16.9681 58.7187L16.3965 58.8559L16.4222 58.9531C16.4251 58.9531 16.4251 58.9531 16.4251 58.9531C16.608 58.9588 16.7852 58.9617 16.9652 58.9702L17.5369 58.8473L17.5769 58.9902C17.6026 58.9902 17.6312 58.9902 17.654 58.9931L17.5797 58.7445Z" fill="white"/>
<path d="M35.1674 34.951C35.1417 34.3794 35.0845 33.8335 35.0016 33.3076V33.3048C34.8959 32.6388 34.7472 32.0186 34.5586 31.427C32.9381 26.334 28.4281 24.0075 23.8867 23.5988C17.839 23.0558 11.3598 26.0425 10.1309 33.0332V43.8967C12.6374 40.6242 14.8581 39.9097 16.3157 39.9097C18.7193 39.9097 20.5999 41.9446 20.6828 44.6512C20.7971 48.361 17.5875 52.2479 10.1652 52.5766H10.1366C10.1394 54.5401 10.1394 56.1634 10.1394 57.1409C10.1394 57.6353 10.3795 58.0783 10.7653 58.3984C11.154 58.7128 11.6856 58.8986 12.2658 58.8814C13.7177 58.8786 15.1067 58.9129 16.4243 58.9529L16.3986 58.8557L16.9702 58.7185L17.5389 58.5871L17.5818 58.7442L17.659 58.9958C20.8 59.0929 23.5465 59.1615 25.9101 58.7157C25.913 58.7157 25.913 58.7157 25.913 58.7157L25.8587 58.5671L26.3989 58.407L26.4103 58.4013L26.9733 58.2355L26.9791 58.2498L27.0534 58.4499H27.0562C28.0194 58.1755 28.9082 57.7954 29.7285 57.2638C30.4144 56.8179 31.0032 56.3521 31.5091 55.8205C33.181 54.0513 33.9527 51.5363 34.4671 46.5747C34.7158 44.1768 34.9101 41.2015 35.1159 37.4661C35.1902 36.5772 35.2074 35.7398 35.1674 34.951ZM28.0908 35.5455C26.4532 35.5455 25.1213 34.2165 25.1213 32.5759C25.1213 30.9354 26.4503 29.6064 28.0908 29.6064C29.0969 29.6064 29.9829 30.1037 30.5202 30.8697C30.0315 30.9411 29.6542 31.3641 29.6542 31.8729C29.6542 32.433 30.1086 32.8875 30.6688 32.8875C30.8031 32.8875 30.9317 32.8618 31.0489 32.8132C30.926 34.3451 29.6485 35.5455 28.0908 35.5455Z" fill="white"/>
<path d="M37.5967 30.3926L35.0016 33.3078C34.8958 32.6419 34.7472 32.0217 34.5586 31.43L37.5967 30.3926Z" fill="white"/>
<path d="M38.4269 34.4566L35.1687 34.9482C35.143 34.3766 35.0858 33.8307 35.0029 33.3048L38.4269 34.4566Z" fill="white"/>
<path d="M18.44 61.5911L17.1482 61.6282L16.4251 58.956L16.3965 58.8559L16.9681 58.7216L17.5369 58.5873L17.5797 58.7445L17.6569 58.996L18.44 61.5911Z" fill="white"/>
<path d="M28.1753 61.4168L26.892 61.4825L25.9117 58.7159L25.8574 58.5644L26.4004 58.4044L26.4119 58.4015L26.9749 58.2329L26.9778 58.2501L27.0549 58.4473L28.1753 61.4168Z" fill="white"/>
<path d="M59.5991 58.5873L59.4934 58.996C59.8906 58.9846 60.2965 58.9703 60.708 58.9588H60.7109L60.7366 58.856L59.5991 58.5873ZM50.159 58.2329L50.0732 58.4444C50.4448 58.5502 50.8278 58.6387 51.2222 58.7159L51.2765 58.5673L50.159 58.2329Z" fill="white"/>
<path d="M59.5991 58.5873L59.4934 58.996C59.8906 58.9846 60.2965 58.9703 60.708 58.9588H60.7109L60.7366 58.856L59.5991 58.5873ZM50.159 58.2329L50.0732 58.4444C50.4448 58.5502 50.8278 58.6387 51.2222 58.7159L51.2765 58.5673L50.159 58.2329Z" fill="white"/>
<path d="M67.0016 33.0387C65.7755 26.0479 59.2935 23.0613 53.2458 23.6043C48.6758 24.0159 44.1315 26.3709 42.5424 31.5354C42.3338 32.2128 42.1737 32.9387 42.0737 33.7161C41.9251 34.8565 41.9022 36.1026 42.0223 37.463C42.2681 41.9644 42.4938 45.3569 42.8311 47.9778C43.3998 52.4249 44.2801 54.6399 46.1007 56.2747C46.4923 56.6234 46.9238 56.9492 47.4068 57.2607C48.2242 57.7923 49.1159 58.1753 50.0762 58.4439L50.162 58.2325L51.2795 58.564L51.2252 58.7126C53.5945 59.1613 56.3497 59.0899 59.4935 58.9927L59.5993 58.584L60.7368 58.8526L60.7111 58.9555C62.0315 58.9155 63.4205 58.8784 64.8724 58.8812C65.4526 58.8984 65.9842 58.7097 66.3728 58.3982C66.7615 58.081 67.0016 57.638 67.0016 57.1435V52.5792L66.9702 52.5764C59.5507 52.2477 56.344 48.3607 56.4526 44.651C56.5354 41.9473 58.4132 39.9095 60.8225 39.9095C62.2773 39.9095 64.4951 40.6211 67.0016 43.8936V43.6107C67.0045 38.2347 67.0073 33.3503 67.0016 33.0387ZM49.6418 35.5453C48.0842 35.5453 46.8038 34.3449 46.6837 32.8158C46.8009 32.8615 46.9295 32.8901 47.0639 32.8901C47.624 32.8901 48.0785 32.4357 48.0785 31.8755C48.0785 31.3668 47.7012 30.9438 47.2125 30.8723C47.7498 30.1092 48.6358 29.6091 49.6418 29.6091C51.2795 29.6091 52.6113 30.9381 52.6113 32.5786C52.6113 34.2191 51.2795 35.5453 49.6418 35.5453Z" fill="white"/>
<path d="M60.7353 58.8559L60.7067 58.9588L59.9836 61.6254L58.8232 61.5911L59.492 58.996L59.5978 58.5873L60.7353 58.8559Z" fill="white"/>
<path d="M51.276 58.5644L51.2245 58.7159L50.2414 61.4825L48.8838 61.4168L50.0756 58.4444L50.1585 58.2329L51.276 58.5644Z" fill="white"/>
<path d="M42.5414 31.5354C42.3327 32.2128 42.1727 32.9387 42.0726 33.7161L39.0488 31.4525L42.5414 31.5354Z" fill="white"/>
<path d="M38.3671 51.2936C37.7268 53.2399 35.9577 54.7547 33.6884 55.3348C33.3598 55.4206 32.9825 55.5092 32.5566 55.6035C34.0943 53.8458 34.8259 51.3336 35.3232 46.5721C35.3261 46.5349 35.3318 46.4978 35.3347 46.4577L37.5497 46.1662C38.1041 46.0919 38.6214 46.4263 38.6872 46.9036C38.8215 47.9011 38.9158 49.6159 38.3671 51.2936Z" fill="white"/>
<path d="M44.7392 56.0692C44.2276 55.972 43.7417 55.8548 43.3244 55.7405C41.7782 55.3204 40.5979 54.2458 40.2292 52.8968C39.809 51.3505 39.8776 49.5157 39.9748 48.4411C40.0205 47.958 40.5464 47.6122 41.1037 47.7037L41.9154 47.8323C41.9326 47.9781 41.9526 48.1238 41.9697 48.2639C42.4842 52.2823 43.253 54.4773 44.7392 56.0692Z" fill="white"/>
<path d="M67.0117 45.4116L66.6916 44.96V44.9286C66.5201 44.6857 66.3515 44.4599 66.18 44.2398L66.1571 44.2055H66.1543C57.8774 33.5707 51.1495 51.0277 66.6887 51.7165C66.6887 51.7022 66.8202 51.7108 67.0117 51.7308V45.4116Z" fill="white"/>
<path d="M10.1895 45.4116L10.5096 44.96V44.9286C10.681 44.6857 10.8497 44.4599 11.0211 44.2398L11.044 44.2055H11.0469C19.3238 33.5707 26.0516 51.0277 10.5124 51.7165C10.5124 51.7022 10.3809 51.7108 10.1895 51.7308V45.4116Z" fill="white"/>
<path d="M29.8499 33.3446C30.6392 33.3446 31.2789 32.7048 31.2789 31.9156C31.2789 31.1264 30.6392 30.4866 29.8499 30.4866C29.0607 30.4866 28.4209 31.1264 28.4209 31.9156C28.4209 32.7048 29.0607 33.3446 29.8499 33.3446Z" fill="white"/>
<path d="M47.8548 33.3446C48.644 33.3446 49.2838 32.7048 49.2838 31.9156C49.2838 31.1264 48.644 30.4866 47.8548 30.4866C47.0656 30.4866 46.4258 31.1264 46.4258 31.9156C46.4258 32.7048 47.0656 33.3446 47.8548 33.3446Z" fill="white"/>
<path d="M56.4828 6.099H21.0458C12.6975 6.099 5.92676 12.8697 5.92676 21.2181V56.655C5.92676 65.0063 12.6975 71.7741 21.0458 71.7741H56.4828C64.834 71.7741 71.6019 65.0063 71.6019 56.655V21.2181C71.6019 12.8697 64.834 6.099 56.4828 6.099ZM69.7384 56.655C69.7384 63.9659 63.7937 69.9107 56.4828 69.9107H21.0458C13.7378 69.9107 7.79021 63.9659 7.79021 56.655V21.2181C7.79021 13.9101 13.7378 7.96245 21.0458 7.96245H56.4828C63.7937 7.96245 69.7384 13.9101 69.7384 21.2181V56.655Z" fill="white"/>
<path d="M49.2639 7.73689C47.9521 7.73689 47.9521 9.31453 46.6402 9.31453C45.3284 9.31453 45.3284 8.51142 44.0166 8.51142C42.7047 8.51142 42.7047 10.1577 41.3929 10.1577C40.081 10.1577 40.081 8.22276 38.7692 8.22276C37.4573 8.22276 37.4573 12.2869 36.1455 12.2869C34.8336 12.2869 34.8336 8.14559 33.5218 8.14559C32.21 8.14559 32.21 11.0294 30.8981 11.0294C29.5863 11.0294 29.5863 7.73689 28.2744 7.73689V6.36789C29.5863 6.36789 29.5863 3.07541 30.8981 3.07541C32.21 3.07541 32.21 5.95633 33.5218 5.95633C34.8336 5.95633 34.8336 1.81787 36.1455 1.81787C37.4573 1.81787 37.4573 5.88202 38.7692 5.88202C40.081 5.88202 40.081 3.94712 41.3929 3.94712C42.7047 3.94712 42.7047 5.59336 44.0166 5.59336C45.3284 5.59336 45.3284 4.50444 46.6402 4.50444C47.9521 4.50444 47.9521 6.36789 49.2639 6.36789V7.73689Z" fill="white"/>
<defs>
<linearGradient id="paint0_linear_88611_14910" x1="71.5132" y1="71.6827" x2="5.97674" y2="6.14623" gradientUnits="userSpaceOnUse">
<stop offset="0.00558659" stop-color="#85C23F"/>
<stop offset="1" stop-color="#49C2E4"/>
</linearGradient>
</defs>
</svg>
